<svg width="1440" height="950" viewBox="0 0 1440 950" fill="none" xmlns="http://www.w3.org/2000/svg">
<mask id="mask0_266_2921" style="mask-type:alpha" maskUnits="userSpaceOnUse" x="0" y="0" width="1440" height="950">
<rect width="1440" height="949.979" fill="url(#paint0_linear_266_2921)"/>
</mask>
<g mask="url(#mask0_266_2921)">
<path d="M1142.49 341.137L1142.25 341.564L1439.75 513.329L1440 512.902L1142.49 341.137Z" fill="#D9D9D9"/>
<path d="M1291.41 198L993.909 369.765L994.156 370.192L1291.66 198.428L1291.41 198Z" fill="#D9D9D9"/>
<path d="M784.31 347.828L550.318 482.869L550.537 483.249L784.529 348.208L784.31 347.828Z" fill="#D9D9D9"/>
<path d="M648.546 767.698L351.041 939.462L351.287 939.89L648.793 768.125L648.546 767.698Z" fill="#D9D9D9"/>
<path d="M158.548 485.089L158.335 485.457L376.647 611.499L376.859 611.131L158.548 485.089Z" fill="#D9D9D9"/>
<path d="M64.5713 487.861L64.3586 488.229L282.67 614.272L282.883 613.904L64.5713 487.861Z" fill="#D9D9D9"/>
<path d="M799.117 313.969L798.905 314.337L1017.22 440.379L1017.43 440.011L799.117 313.969Z" fill="#D9D9D9"/>
<path d="M599.204 625.243L599.015 625.569L772.72 725.858L772.909 725.531L599.204 625.243Z" fill="#D9D9D9"/>
<path d="M401.686 427.06L401.562 426.992L352.064 398.412V341.116L352.188 341.048L401.686 312.468L451.307 341.116V398.412L451.184 398.481L401.686 427.06V427.06ZM352.558 398.124L401.686 426.491L450.813 398.124V341.397L401.686 313.038L352.558 341.397V398.124Z" fill="#D9D9D9"/>
<path d="M599.184 484.069L599.06 484L549.562 455.421V398.125L549.686 398.056L599.184 369.477L599.307 369.545L648.805 398.125V455.421L648.681 455.489L599.184 484.069V484.069ZM550.056 455.133L599.184 483.499L648.311 455.133V398.406L599.184 370.039L550.056 398.406V455.133Z" fill="#D9D9D9"/>
<path d="M549.809 484.247L549.48 484.055L499.776 455.359V397.589L500.105 397.397L549.809 368.701L599.842 397.589V455.359L599.513 455.551L549.809 484.247V484.247ZM501.093 454.597L549.809 482.724L598.525 454.597V398.344L549.809 370.217L501.093 398.344V454.597Z" fill="#D9D9D9"/>
<path d="M697.925 398.241L697.802 398.172L648.304 369.593V312.297L648.427 312.228L697.925 283.649L747.547 312.297V369.593L747.423 369.662L697.925 398.241V398.241ZM648.798 369.305L697.925 397.672L747.053 369.305V312.578L697.925 284.211L648.798 312.578V369.305V369.305Z" fill="#D9D9D9"/>
<path d="M648.551 426.759L648.428 426.69L598.93 398.111V340.815L599.053 340.746L648.551 312.167L698.172 340.815V398.111L698.049 398.179L648.551 426.759V426.759ZM599.423 397.823L648.551 426.189L697.679 397.823V341.096L648.551 312.729L599.423 341.096V397.823Z" fill="#D9D9D9"/>
<path d="M401.686 455.729L401.357 455.537L351.653 426.841V369.072L401.686 340.184L451.719 369.072V426.841L451.389 427.033L401.686 455.729ZM352.97 426.08L401.686 454.206L450.402 426.08V369.826L401.686 341.699L352.97 369.826V426.08Z" fill="#D9D9D9"/>
<path d="M352.311 483.767L352.188 483.698L302.69 455.119V397.823L302.813 397.754L352.311 369.175L401.933 397.823V455.119L401.809 455.187L352.311 483.767V483.767ZM303.184 454.831L352.311 483.191L401.439 454.831V398.104L352.311 369.744L303.184 398.104V454.831V454.831Z" fill="#D9D9D9"/>
<path d="M500.434 455.256L500.311 455.187L450.813 426.608V369.312L450.936 369.243L500.434 340.664L550.056 369.312V426.608L549.932 426.676L500.434 455.256V455.256ZM451.307 426.32L500.434 454.68L549.562 426.32V369.593L500.434 341.226L451.307 369.593V426.32Z" fill="#D9D9D9"/>
<path d="M500.434 398.241L500.311 398.172L450.813 369.593V312.297L450.936 312.228L500.434 283.649L550.056 312.297V369.593L549.932 369.662L500.434 398.241V398.241ZM451.307 369.305L500.434 397.672L549.562 369.305V312.578L500.434 284.211L451.307 312.578V369.305Z" fill="#D9D9D9"/>
<path d="M747.3 912.15L746.971 911.958L697.267 883.262V825.493L697.596 825.301L747.3 796.604L747.629 796.797L797.333 825.493V883.262L797.004 883.454L747.3 912.15ZM698.584 882.507L747.3 910.634L796.016 882.507V826.254L747.3 798.127L698.584 826.254V882.507Z" fill="#D9D9D9"/>
<path d="M697.925 940.187L697.802 940.119L648.304 911.539V854.243L648.427 854.175L697.925 825.595L698.049 825.664L747.547 854.243V911.539L747.423 911.608L697.925 940.187V940.187ZM648.798 911.251L697.925 939.611L747.053 911.251V854.524L697.925 826.164L648.798 854.524V911.251V911.251Z" fill="#D9D9D9"/>
<path d="M648.558 911.677L648.434 911.608L598.937 883.029V825.733L599.06 825.664L648.558 797.084L648.681 797.153L698.179 825.733V883.029L698.056 883.097L648.558 911.677V911.677ZM599.43 882.741L648.558 911.107L697.685 882.741V826.014L648.558 797.647L599.43 826.014V882.741V882.741Z" fill="#D9D9D9"/>
<path d="M648.558 855.135L648.229 854.943L598.525 826.247V768.477L598.854 768.285L648.558 739.589L648.887 739.781L698.591 768.477V826.247L698.262 826.439L648.558 855.135ZM599.842 825.485L648.558 853.612L697.274 825.485V769.232L648.558 741.105L599.842 769.232V825.485Z" fill="#D9D9D9"/>
<path d="M352.311 939.577L352.188 939.508L302.69 910.929V853.633L302.813 853.564L352.311 824.985L352.435 825.053L401.933 853.633V910.929L401.809 910.998L352.311 939.577ZM303.184 910.641L352.311 939.001L401.439 910.641V853.914L352.311 825.554L303.184 853.914V910.641V910.641Z" fill="#D9D9D9"/>
<path d="M302.937 968.095L302.813 968.026L253.315 939.447V882.15L253.439 882.082L302.937 853.502L303.06 853.571L352.558 882.15V939.447L352.435 939.515L302.937 968.095ZM253.809 939.158L302.937 967.518L352.064 939.158V882.432L302.937 854.072L253.809 882.432V939.158Z" fill="#D9D9D9"/>
<path d="M253.562 939.577L253.439 939.508L203.941 910.929V853.633L204.064 853.564L253.562 824.985L253.686 825.053L303.184 853.633V910.929L303.06 910.998L253.562 939.577ZM204.435 910.641L253.562 939.001L302.69 910.641V853.914L253.562 825.547L204.435 853.914V910.641Z" fill="#D9D9D9"/>
<path d="M253.562 882.569L253.439 882.501L203.941 853.921V796.625L204.064 796.556L253.562 767.977L253.686 768.046L303.184 796.625V853.921L303.06 853.99L253.562 882.569ZM204.435 853.633L253.562 882L302.69 853.633V796.906L253.562 768.539L204.435 796.906V853.633Z" fill="#D9D9D9"/>
<path d="M846.049 826.452L845.925 826.384L796.427 797.804V740.508L796.551 740.44L846.049 711.86L846.172 711.929L895.67 740.508V797.804L895.547 797.873L846.049 826.452ZM796.921 797.516L846.049 825.876L895.176 797.516V740.79L846.049 712.43L796.921 740.79V797.516Z" fill="#D9D9D9"/>
<path d="M796.674 826.151L796.551 826.082L747.053 797.503V740.207L747.176 740.138L796.674 711.559L796.798 711.627L846.296 740.207V797.503L846.172 797.571L796.674 826.151ZM747.547 797.215L796.674 825.575L845.802 797.215V740.488L796.674 712.121L747.547 740.488V797.215Z" fill="#D9D9D9"/>
<path d="M944.798 740.625L944.674 740.556L895.177 711.977V654.681L895.3 654.612L944.798 626.033L944.921 626.101L994.419 654.681V711.977L994.296 712.045L944.798 740.625ZM895.67 711.689L944.798 740.049L993.926 711.689V654.962L944.798 626.595L895.67 654.962V711.689Z" fill="#D9D9D9"/>
<path d="M747.3 797.633L747.177 797.565L697.679 768.985V711.689L697.802 711.62L747.3 683.041L747.423 683.11L796.921 711.689V768.985L796.798 769.054L747.3 797.633ZM698.172 768.697L747.3 797.064L796.428 768.697V711.97L747.3 683.61L698.172 711.97V768.697V768.697Z" fill="#D9D9D9"/>
<path d="M1142.29 912.15L1141.96 911.958L1092.26 883.262V825.493L1092.59 825.301L1142.29 796.604L1142.62 796.797L1192.32 825.493V883.262L1191.99 883.454L1142.29 912.15ZM1093.57 882.507L1142.29 910.634L1191.01 882.507V826.254L1142.29 798.127L1093.57 826.254V882.507Z" fill="#D9D9D9"/>
<path d="M1092.92 940.187L1092.8 940.119L1043.3 911.539V854.243L1043.42 854.175L1092.92 825.595L1093.04 825.664L1142.54 854.243V911.539L1142.42 911.608L1092.92 940.187ZM1043.79 911.251L1092.92 939.611L1142.05 911.251V854.524L1092.92 826.164L1043.79 854.524V911.251Z" fill="#D9D9D9"/>
<path d="M1241.04 826.452L1240.91 826.384L1191.42 797.804V740.508L1191.54 740.44L1241.04 711.86L1241.16 711.929L1290.66 740.508V797.804L1290.54 797.873L1241.04 826.452ZM1191.91 797.516L1241.04 825.876L1290.16 797.516V740.79L1241.04 712.43L1191.91 740.79V797.516Z" fill="#D9D9D9"/>
<path d="M1191.66 826.151L1191.54 826.082L1142.04 797.503V740.207L1142.16 740.138L1191.66 711.559L1191.79 711.627L1241.28 740.207V797.503L1241.16 797.571L1191.66 826.151ZM1142.54 797.215L1191.66 825.575L1240.79 797.215V740.488L1191.66 712.121L1142.54 740.488V797.215Z" fill="#D9D9D9"/>
<path d="M1142.29 797.633L1142.17 797.565L1092.67 768.985V711.689L1092.79 711.62L1142.29 683.041L1142.41 683.11L1191.91 711.689V768.985L1191.79 769.054L1142.29 797.633ZM1093.16 768.697L1142.29 797.064L1191.42 768.697V711.97L1142.29 683.61L1093.16 711.97V768.697Z" fill="#D9D9D9"/>
<path d="M747.3 740.625L747.177 740.556L697.679 711.977V654.681L697.802 654.612L747.3 626.033L747.423 626.101L796.921 654.681V711.977L796.798 712.045L747.3 740.625ZM698.172 711.689L747.3 740.049L796.428 711.689V654.962L747.3 626.595L698.172 654.962V711.689V711.689Z" fill="#D9D9D9"/>
<path d="M846.049 740.625L845.925 740.556L796.427 711.977V654.681L796.551 654.612L846.049 626.033L846.172 626.101L895.67 654.681V711.977L895.547 712.045L846.049 740.625ZM796.921 711.689L846.049 740.049L895.176 711.689V654.962L846.049 626.595L796.921 654.962V711.689Z" fill="#D9D9D9"/>
<path d="M846.049 684.084L845.72 683.891L796.016 655.195V597.426L796.345 597.234L846.049 568.538L846.378 568.73L896.082 597.426V655.195L895.753 655.387L846.049 684.084ZM797.333 654.434L846.049 682.561L894.765 654.434V598.181L846.049 570.054L797.333 598.181V654.434Z" fill="#D9D9D9"/>
<path d="M451.06 540.775L450.936 540.706L401.438 512.127V454.831L401.562 454.762L451.06 426.183L451.183 426.251L500.681 454.831V512.127L500.558 512.195L451.06 540.775ZM401.932 511.839L451.06 540.199L500.187 511.839V455.112L451.06 426.752L401.932 455.112V511.839Z" fill="#D9D9D9"/>
<path d="M648.551 597.782L648.428 597.714L598.93 569.134V511.838L599.053 511.77L648.551 483.19L648.674 483.259L698.172 511.838V569.134L698.049 569.203L648.551 597.782ZM599.423 568.846L648.551 597.206L697.679 568.846V512.12L648.551 483.76L599.423 512.12V568.846Z" fill="#D9D9D9"/>
<path d="M697.925 541.07L697.802 541.001L648.304 512.422V455.126L648.427 455.057L697.925 426.478L698.049 426.546L747.547 455.126V512.422L747.423 512.49L697.925 541.07V541.07ZM648.798 512.134L697.925 540.5L747.053 512.134V455.407L697.925 427.047L648.798 455.407V512.134V512.134Z" fill="#D9D9D9"/>
<path d="M747.3 570.074L746.971 569.882L697.267 541.186V483.417L697.596 483.225L747.3 454.529L747.629 454.721L797.333 483.417V541.186L797.004 541.378L747.3 570.074ZM698.584 540.425L747.3 568.552L796.016 540.425V484.171L747.3 456.045L698.584 484.171V540.425Z" fill="#D9D9D9"/>
<path d="M846.049 483.767L845.925 483.698L796.427 455.119V397.823L796.551 397.754L846.049 369.175L895.67 397.823V455.119L895.547 455.187L846.049 483.767V483.767ZM796.921 454.831L846.049 483.191L895.176 454.831V398.104L846.049 369.737L796.921 398.104V454.831Z" fill="#D9D9D9"/>
<path d="M796.674 512.284L796.551 512.216L747.053 483.636V426.34L747.176 426.272L796.674 397.692L796.798 397.761L846.296 426.34V483.636L846.172 483.705L796.674 512.284ZM747.547 483.348L796.674 511.708L845.802 483.348V426.622L796.674 398.262L747.547 426.622V483.348Z" fill="#D9D9D9"/>
<path d="M747.3 483.767L747.177 483.698L697.679 455.119V397.823L697.802 397.754L747.3 369.175L796.921 397.823V455.119L796.798 455.187L747.3 483.767V483.767ZM698.172 454.831L747.3 483.191L796.428 454.831V398.104L747.3 369.737L698.172 398.104V454.831V454.831Z" fill="#D9D9D9"/>
<path d="M796.674 683.308L796.551 683.24L747.053 654.66V597.364L747.176 597.296L796.674 568.716L796.798 568.785L846.296 597.364V654.66L846.172 654.729L796.674 683.308ZM747.547 654.372L796.674 682.739L845.802 654.372V597.646L796.674 569.279L747.547 597.646V654.372Z" fill="#D9D9D9"/>
<path d="M747.3 683.624L747.177 683.555L697.679 654.976V597.68L697.802 597.611L747.3 569.032L747.423 569.1L796.921 597.68V654.976L796.798 655.044L747.3 683.624ZM698.172 654.688L747.3 683.048L796.428 654.688V597.961L747.3 569.601L698.172 597.961V654.688V654.688Z" fill="#D9D9D9"/>
<path d="M895.423 598.084L895.3 598.016L845.802 569.436V512.14L845.925 512.072L895.423 483.492L895.547 483.561L945.045 512.14V569.436L944.921 569.505L895.423 598.084ZM846.296 569.148L895.423 597.508L944.551 569.148V512.421L895.423 484.055L846.296 512.421V569.148Z" fill="#D9D9D9"/>
<path d="M846.049 626.596L845.925 626.527L796.427 597.948V540.651L796.551 540.583L846.049 512.003L846.172 512.072L895.67 540.651V597.948L895.547 598.016L846.049 626.596ZM796.921 597.659L846.049 626.019L895.176 597.659V540.933L846.049 512.566L796.921 540.933V597.659Z" fill="#D9D9D9"/>
<path d="M352.311 768.539L352.188 768.471L302.69 739.891V682.595L302.813 682.527L352.311 653.947L352.435 654.016L401.933 682.595V739.891L401.809 739.96L352.311 768.539ZM303.184 739.603L352.311 767.963L401.439 739.603V682.876L352.311 654.51L303.184 682.876V739.603V739.603Z" fill="#D9D9D9"/>
<path d="M451.06 682.712L450.936 682.643L401.438 654.064V596.768L401.562 596.699L451.06 568.12L451.183 568.188L500.681 596.768V654.064L500.558 654.132L451.06 682.712ZM401.932 653.776L451.06 682.136L500.187 653.776V597.049L451.06 568.689L401.932 597.049V653.776Z" fill="#D9D9D9"/>
<path d="M401.686 711.222L401.562 711.154L352.064 682.574V625.278L352.188 625.21L401.686 596.63L401.809 596.699L451.307 625.278V682.574L451.184 682.643L401.686 711.222ZM352.558 682.286L401.686 710.653L450.813 682.286V625.56L401.686 597.2L352.558 625.56V682.286Z" fill="#D9D9D9"/>
<path d="M401.686 882.253L401.562 882.185L352.064 853.605V796.309L352.188 796.241L401.686 767.661L401.809 767.73L451.307 796.309V853.605L451.184 853.674L401.686 882.253ZM352.558 853.317L401.686 881.677L450.813 853.317V796.59L401.686 768.224L352.558 796.59V853.317Z" fill="#D9D9D9"/>
<path d="M352.311 882.562L352.188 882.493L302.69 853.914V796.618L302.813 796.549L352.311 767.97L352.435 768.038L401.933 796.618V853.914L401.809 853.982L352.311 882.562ZM303.184 853.626L352.311 881.986L401.439 853.626V796.899L352.311 768.532L303.184 796.899V853.626V853.626Z" fill="#D9D9D9"/>
<path d="M500.435 797.496L500.106 797.304L450.402 768.608V710.838L450.731 710.646L500.435 681.95L500.764 682.142L550.468 710.838V768.608L550.138 768.8L500.435 797.496ZM451.719 767.846L500.435 795.973L549.151 767.846V711.593L500.435 683.466L451.719 711.593V767.846Z" fill="#D9D9D9"/>
<path d="M451.06 825.54L450.936 825.472L401.438 796.892V739.596L401.562 739.528L451.06 710.948L451.183 711.017L500.681 739.596V796.892L500.558 796.961L451.06 825.54ZM401.932 796.604L451.06 824.964L500.187 796.604V739.878L451.06 711.518L401.932 739.878V796.604Z" fill="#D9D9D9"/>
<path d="M500.434 654.482L500.311 654.414L450.813 625.834V568.538L450.936 568.47L500.434 539.89L500.558 539.959L550.056 568.538V625.834L549.932 625.903L500.434 654.482ZM451.307 625.546L500.434 653.906L549.562 625.546V568.819L500.434 540.459L451.307 568.819V625.546Z" fill="#D9D9D9"/>
<path d="M599.184 625.697L599.06 625.629L549.562 597.049V539.753L549.686 539.684L599.184 511.105L599.307 511.174L648.805 539.753V597.049L648.681 597.118L599.184 625.697ZM550.056 596.761L599.184 625.128L648.311 596.761V540.034L599.184 511.674L550.056 540.034V596.761Z" fill="#D9D9D9"/>
<path d="M599.184 796.728L599.06 796.659L549.562 768.08V710.784L549.686 710.715L599.184 682.136L599.307 682.204L648.805 710.784V768.08L648.681 768.148L599.184 796.728ZM550.056 767.792L599.184 796.152L648.311 767.792V711.065L599.184 682.705L550.056 711.065V767.792Z" fill="#D9D9D9"/>
<path d="M549.809 797.647L549.685 797.578L500.187 768.999V711.703L500.311 711.634L549.809 683.055L549.932 683.123L599.43 711.703V768.999L599.307 769.067L549.809 797.647ZM500.681 768.711L549.809 797.071L598.936 768.711V711.984L549.809 683.617L500.681 711.984V768.711Z" fill="#D9D9D9"/>
<path d="M549.809 740.172L549.685 740.104L500.187 711.524V654.228L500.311 654.16L549.809 625.58L549.932 625.649L599.43 654.228V711.524L599.307 711.593L549.809 740.172ZM500.681 711.236L549.809 739.596L598.936 711.236V654.509L549.809 626.142L500.681 654.509V711.236Z" fill="#D9D9D9"/>
<path d="M1092.92 741.414L1092.59 741.222L1042.89 712.526V654.756L1043.22 654.564L1092.92 625.868L1093.25 626.06L1142.95 654.756V712.526L1142.62 712.718L1092.92 741.414ZM1044.21 711.764L1092.92 739.891L1141.64 711.764V655.511L1092.92 627.384L1044.21 655.511V711.764Z" fill="#D9D9D9"/>
<path d="M1043.55 740.632L1043.42 740.563L993.925 711.984V654.688L994.049 654.619L1043.55 626.04L1043.67 626.108L1093.17 654.688V711.984L1093.04 712.052L1043.55 740.632ZM994.419 711.696L1043.55 740.056L1092.67 711.696V654.969L1043.55 626.602L994.419 654.969V711.696Z" fill="#D9D9D9"/>
<path d="M1191.66 655.106L1191.54 655.038L1142.04 626.458V569.162L1142.16 569.094L1191.66 540.514L1191.79 540.583L1241.28 569.162V626.458L1241.16 626.527L1191.66 655.106ZM1142.54 626.17L1191.66 654.537L1240.79 626.17V569.443L1191.66 541.077L1142.54 569.443V626.17Z" fill="#D9D9D9"/>
<path d="M1142.29 684.097L1141.96 683.905L1092.26 655.209V597.44L1092.59 597.248L1142.29 568.552L1142.62 568.744L1192.32 597.44V655.209L1191.99 655.401L1142.29 684.097ZM1093.57 654.448L1142.29 682.575L1191.01 654.448V598.194L1142.29 570.068L1093.57 598.194V654.448Z" fill="#D9D9D9"/>
<path d="M994.172 712.121L994.049 712.052L944.551 683.473V626.177L944.674 626.108L994.172 597.529L994.296 597.597L1043.79 626.177V683.473L1043.67 683.541L994.172 712.121ZM945.045 683.185L994.172 711.545L1043.3 683.185V626.458L994.172 598.098L945.045 626.458V683.185Z" fill="#D9D9D9"/>
<path d="M1092.92 655.106L1092.8 655.038L1043.3 626.458V569.162L1043.42 569.094L1092.92 540.514L1093.04 540.583L1142.54 569.162V626.458L1142.42 626.527L1092.92 655.106ZM1043.79 626.17L1092.92 654.537L1142.05 626.17V569.443L1092.92 541.077L1043.79 569.443V626.17Z" fill="#D9D9D9"/>
<path d="M1092.92 598.091L1092.8 598.023L1043.3 569.443V512.147L1043.42 512.078L1092.92 483.499L1093.04 483.568L1142.54 512.147V569.443L1142.42 569.512L1092.92 598.091ZM1043.79 569.155L1092.92 597.515L1142.05 569.155V512.428L1092.92 484.068L1043.79 512.428V569.155Z" fill="#D9D9D9"/>
<path d="M994.172 484.082L994.049 484.014L944.551 455.434V398.138L944.674 398.07L994.172 369.49L994.296 369.559L1043.79 398.138V455.434L1043.67 455.503L994.172 484.082V484.082ZM945.045 455.146L994.172 483.506L1043.3 455.146V398.419L994.172 370.053L945.045 398.419V455.146Z" fill="#D9D9D9"/>
<path d="M994.172 598.105L994.049 598.037L944.551 569.457V512.161L944.674 512.093L994.172 483.513L994.296 483.582L1043.79 512.161V569.457L1043.67 569.526L994.172 598.105ZM945.045 569.169L994.172 597.529L1043.3 569.169V512.442L994.172 484.076L945.045 512.442V569.169Z" fill="#D9D9D9"/>
<path d="M1142.29 512.566L1142.17 512.497L1092.67 483.918V426.622L1092.79 426.553L1142.29 397.974L1142.41 398.042L1191.91 426.622V483.918L1191.79 483.986L1142.29 512.566ZM1093.16 483.63L1142.29 511.996L1191.42 483.63V426.903L1142.29 398.536L1093.16 426.903V483.63Z" fill="#D9D9D9"/>
<path d="M1092.92 541.557L1092.59 541.365L1042.89 512.669V454.899L1043.22 454.707L1092.92 426.011L1093.25 426.203L1142.95 454.899V512.669L1142.62 512.861L1092.92 541.557ZM1044.21 511.907L1092.92 540.034L1141.64 511.907V455.654L1092.92 427.527L1044.21 455.654V511.907Z" fill="#D9D9D9"/>
<path d="M1043.55 455.578L1043.42 455.51L993.925 426.93V369.634L994.049 369.566L1043.55 340.986L1093.17 369.634V426.93L1093.04 426.999L1043.55 455.578V455.578ZM994.419 426.642L1043.55 455.002L1092.67 426.642V369.916L1043.55 341.549L994.419 369.916V426.642Z" fill="#D9D9D9"/>
<path d="M1092.92 370.053L1043.3 341.405V284.108L1043.42 284.04L1092.92 255.46L1142.54 284.108V341.405L1142.42 341.473L1092.92 370.053ZM1043.79 341.116L1092.92 369.483L1142.05 341.116V284.39L1092.92 256.023L1043.79 284.39V341.116Z" fill="#D9D9D9"/>
<path d="M1043.55 398.57L1043.42 398.502L993.925 369.922V312.626L994.049 312.557L1043.55 283.978L1093.17 312.626V369.922L1093.04 369.991L1043.55 398.57V398.57ZM994.419 369.634L1043.55 397.994L1092.67 369.634V312.907L1043.55 284.54L994.419 312.907V369.634Z" fill="#D9D9D9"/>
<path d="M944.798 626.589L944.674 626.52L895.177 597.941V540.645L895.3 540.576L944.798 511.997L944.921 512.065L994.419 540.645V597.941L994.296 598.009L944.798 626.589ZM895.67 597.653L944.798 626.019L993.926 597.653V540.926L944.798 512.559L895.67 540.926V597.653Z" fill="#D9D9D9"/>
<path d="M944.798 541.097L944.674 541.028L895.177 512.449V455.153L895.3 455.084L944.798 426.505L944.921 426.573L994.419 455.153V512.449L994.296 512.518L944.798 541.097ZM895.67 512.161L944.798 540.521L993.926 512.161V455.434L944.798 427.067L895.67 455.434V512.161Z" fill="#D9D9D9"/>
<path d="M154.82 854.36L154.697 854.291L105.199 825.712V768.416L105.322 768.347L154.82 739.768L154.944 739.836L204.441 768.416V825.712L204.318 825.78L154.82 854.36ZM105.693 825.424L154.82 853.79L203.948 825.424V768.697L154.82 740.337L105.693 768.697V825.424Z" fill="#D9D9D9"/>
<path d="M105.446 854.531L105.116 854.339L55.4127 825.643V767.874L55.7419 767.682L105.446 738.986L105.775 739.178L155.478 767.874V825.643L155.149 825.835L105.446 854.531ZM56.7296 824.882L105.446 853.009L154.162 824.882V768.628L105.446 740.502L56.7296 768.628V824.882Z" fill="#D9D9D9"/>
<path d="M253.562 768.526L253.439 768.457L203.941 739.878V682.582L204.064 682.513L253.562 653.934L253.686 654.002L303.184 682.582V739.878L303.06 739.946L253.562 768.526ZM204.435 739.59L253.562 767.95L302.69 739.59V682.863L253.562 654.503L204.435 682.863V739.59Z" fill="#D9D9D9"/>
<path d="M204.195 797.043L204.071 796.975L154.573 768.395V711.099L154.697 711.031L204.195 682.451L204.318 682.52L253.816 711.099V768.395L253.693 768.464L204.195 797.043ZM155.067 768.107L204.195 796.467L253.322 768.107V711.38L204.195 683.014L155.067 711.38V768.107Z" fill="#D9D9D9"/>
<path d="M56.0712 826.014L55.742 825.822L6.03833 797.132V739.363L6.36754 739.171L56.0712 710.475L56.4004 710.667L106.104 739.363V797.132L105.775 797.324L56.0712 826.021V826.014ZM7.35517 796.371L56.0712 824.498L104.787 796.371V740.118L56.0712 711.991L7.35517 740.118V796.371Z" fill="#D9D9D9"/>
<path d="M56.0713 768.526L55.9478 768.457L6.44989 739.878V682.582L6.57334 682.513L56.0713 653.934L56.1947 654.002L105.693 682.582V739.878L105.569 739.946L56.0713 768.526V768.526ZM6.9437 739.596L56.0713 767.956L105.199 739.596V682.87L56.0713 654.51L6.9437 682.87V739.596Z" fill="#D9D9D9"/>
<path d="M154.82 768.526L154.697 768.457L105.199 739.878V682.582L105.322 682.513L154.82 653.934L154.944 654.002L204.441 682.582V739.878L204.318 739.946L154.82 768.526ZM105.693 739.59L154.82 767.95L203.948 739.59V682.863L154.82 654.503L105.693 682.863V739.59Z" fill="#D9D9D9"/>
<path d="M154.82 711.517L154.697 711.449L105.199 682.869V625.573L105.322 625.505L154.82 596.925L154.944 596.994L204.441 625.573V682.869L204.318 682.938L154.82 711.517ZM105.693 682.581L154.82 710.941L203.948 682.581V625.855L154.82 597.495L105.693 625.855V682.581Z" fill="#D9D9D9"/>
<path d="M105.446 711.216L105.322 711.147L55.8243 682.568V625.272L55.9478 625.203L105.446 596.624L105.569 596.692L155.067 625.272V682.568L154.944 682.636L105.446 711.216ZM56.3182 682.28L105.446 710.64L154.573 682.28V625.553L105.446 597.193L56.3182 625.553V682.28Z" fill="#D9D9D9"/>
<path d="M56.0713 711.531L55.9478 711.462L6.44989 682.883V625.587L6.57334 625.518L56.0713 596.939L56.1947 597.008L105.693 625.587V682.883L105.569 682.952L56.0713 711.531V711.531ZM6.9437 682.595L56.0713 710.962L105.199 682.595V625.868L56.0713 597.508L6.9437 625.868V682.595Z" fill="#D9D9D9"/>
<path d="M204.195 625.992L204.071 625.923L154.573 597.344V540.048L154.697 539.979L204.195 511.4L204.318 511.468L253.816 540.048V597.344L253.693 597.413L204.195 625.992ZM155.067 597.056L204.195 625.416L253.322 597.056V540.329L204.195 511.962L155.067 540.329V597.056Z" fill="#D9D9D9"/>
<path d="M154.82 654.982L154.491 654.79L104.787 626.094V568.325L105.116 568.133L154.82 539.437L155.149 539.629L204.853 568.325V626.094L204.524 626.286L154.82 654.982V654.982ZM106.104 625.333L154.82 653.46L203.536 625.333V569.08L154.82 540.953L106.104 569.08V625.333V625.333Z" fill="#D9D9D9"/>
<path d="M352.311 769.012L351.982 768.82L302.278 740.124V682.355L302.608 682.163L352.311 653.467L352.64 653.659L402.344 682.355V740.124L402.015 740.316L352.311 769.012V769.012ZM303.595 739.363L352.311 767.49L401.027 739.363V683.109L352.311 654.983L303.595 683.109V739.363Z" fill="#D9D9D9"/>
<path d="M302.937 740.022L302.813 739.953L253.315 711.374V654.078L253.439 654.009L302.937 625.43L303.06 625.498L352.558 654.078V711.374L352.435 711.442L302.937 740.022ZM253.809 711.086L302.937 739.453L352.064 711.086V654.359L302.937 625.992L253.809 654.359V711.086Z" fill="#D9D9D9"/>
<path d="M302.937 683.487L302.607 683.295L252.904 654.599V596.829L253.233 596.637L302.937 567.941L303.266 568.133L352.97 596.829V654.599L352.64 654.791L302.937 683.487V683.487ZM254.221 653.837L302.937 681.964L351.653 653.837V597.584L302.937 569.457L254.221 597.584V653.837Z" fill="#D9D9D9"/>
<path d="M253.562 597.494L253.439 597.426L203.941 568.846V511.55L204.064 511.482L253.562 482.902L253.686 482.971L303.184 511.55V568.846L303.06 568.915L253.562 597.494ZM204.435 568.558L253.562 596.918L302.69 568.558V511.832L253.562 483.472L204.435 511.832V568.558Z" fill="#D9D9D9"/>
<path d="M302.937 626.013L302.813 625.944L253.315 597.364V540.068L253.439 540L302.937 511.42L303.06 511.489L352.558 540.068V597.364L352.435 597.433L302.937 626.013ZM253.809 597.076L302.937 625.436L352.064 597.076V540.35L302.937 511.99L253.809 540.35V597.076Z" fill="#D9D9D9"/>
<path d="M1092.91 940.167L1092.79 940.098L1043.29 911.519V854.223L1043.42 854.154L1092.91 825.575L1093.04 825.643L1142.54 854.223V911.519L1142.41 911.587L1092.91 940.167ZM1043.79 911.231L1092.91 939.591L1142.04 911.231V854.504L1092.91 826.144L1043.79 854.504V911.231Z" fill="#D9D9D9"/>
<path d="M1043.54 968.678L1043.42 968.609L993.919 940.03V882.733L994.042 882.665L1043.54 854.085L1043.66 854.154L1093.16 882.733V940.03L1093.04 940.098L1043.54 968.678ZM994.412 939.742L1043.54 968.101L1092.67 939.742V883.015L1043.54 854.655L994.412 883.015V939.742Z" fill="#D9D9D9"/>
<path d="M895.423 940.167L895.3 940.098L845.802 911.519V854.223L845.925 854.154L895.423 825.575L895.547 825.643L945.045 854.223V911.519L944.921 911.587L895.423 940.167ZM846.296 911.231L895.423 939.591L944.551 911.231V854.504L895.423 826.144L846.296 854.504V911.231Z" fill="#D9D9D9"/>
<path d="M994.165 940.167L994.042 940.098L944.544 911.519V854.223L944.667 854.154L994.165 825.575L994.289 825.643L1043.79 854.223V911.519L1043.66 911.587L994.165 940.167ZM945.038 911.231L994.165 939.591L1043.29 911.231V854.504L994.165 826.144L945.038 854.504V911.231Z" fill="#D9D9D9"/>
<path d="M994.165 883.152L994.042 883.083L944.544 854.504V797.208L944.667 797.139L994.165 768.56L994.289 768.628L1043.79 797.208V854.504L1043.66 854.572L994.165 883.152ZM945.038 854.216L994.165 882.582L1043.29 854.216V797.489L994.165 769.129L945.038 797.489V854.216Z" fill="#D9D9D9"/>
<path d="M944.791 883.46L944.668 883.392L895.17 854.812V797.516L895.293 797.448L944.791 768.868L944.914 768.937L994.412 797.516V854.812L994.289 854.881L944.791 883.46ZM895.663 854.524L944.791 882.884L993.919 854.524V797.797L944.791 769.437L895.663 797.797V854.524Z" fill="#D9D9D9"/>
<path d="M895.423 883.166L895.3 883.097L845.802 854.518V797.222L845.925 797.153L895.423 768.574L895.547 768.642L945.045 797.222V854.518L944.921 854.586L895.423 883.166ZM846.296 854.23L895.423 882.59L944.551 854.23V797.503L895.423 769.143L846.296 797.503V854.23Z" fill="#D9D9D9"/>
<path d="M1043.54 797.626L1043.42 797.558L993.919 768.978V711.682L994.042 711.614L1043.54 683.034L1043.66 683.103L1093.16 711.682V768.978L1093.04 769.047L1043.54 797.626ZM994.412 768.69L1043.54 797.05L1092.67 768.69V711.963L1043.54 683.603L994.412 711.963V768.69Z" fill="#D9D9D9"/>
<path d="M994.165 826.144L994.042 826.075L944.544 797.496V740.2L944.667 740.131L994.165 711.552L994.289 711.62L1043.79 740.2V797.496L1043.66 797.564L994.165 826.144ZM945.038 797.208L994.165 825.568L1043.29 797.208V740.481L994.165 712.121L945.038 740.481V797.208Z" fill="#D9D9D9"/>
<path d="M1092.91 826.137L1092.79 826.068L1043.29 797.489V740.193L1043.42 740.124L1092.91 711.545L1093.04 711.613L1142.54 740.193V797.489L1142.41 797.558L1092.91 826.137ZM1043.79 797.201L1092.91 825.568L1142.04 797.201V740.474L1092.91 712.107L1043.79 740.474V797.201Z" fill="#D9D9D9"/>
<path d="M1241.04 513.073L1240.71 512.881L1191 484.185V426.416L1191.33 426.224L1241.04 397.528L1241.37 397.72L1291.07 426.416V484.185L1290.74 484.377L1241.04 513.073V513.073ZM1192.32 483.424L1241.04 511.551L1289.75 483.424V427.17L1241.04 399.044L1192.32 427.17V483.424Z" fill="#D9D9D9"/>
<path d="M1241.04 740.646L1240.91 740.577L1191.42 711.998V654.702L1191.54 654.633L1241.04 626.054L1241.16 626.122L1290.66 654.702V711.998L1290.54 712.066L1241.04 740.646ZM1191.91 711.71L1241.04 740.077L1290.16 711.71V654.983L1241.04 626.623L1191.91 654.983V711.71Z" fill="#D9D9D9"/>
<path d="M1241.04 569.594L1240.91 569.525L1191.42 540.946V483.65L1191.54 483.581L1241.04 455.002L1241.16 455.071L1290.66 483.65V540.946L1290.54 541.015L1241.04 569.594ZM1191.91 540.658L1241.04 569.025L1290.16 540.658V483.931L1241.04 455.564L1191.91 483.931V540.658V540.658Z" fill="#D9D9D9"/>
<path d="M648.551 740.632L648.428 740.563L598.93 711.984V654.688L599.053 654.619L648.551 626.04L648.674 626.108L698.172 654.688V711.984L698.049 712.052L648.551 740.632ZM599.423 711.696L648.551 740.056L697.679 711.696V654.969L648.551 626.609L599.423 654.969V711.696Z" fill="#D9D9D9"/>
<path d="M451.06 568.963L450.936 568.895L401.438 540.315V483.019L401.562 482.951L451.06 454.371L451.183 454.44L500.681 483.019V540.315L500.558 540.384L451.06 568.963ZM401.932 540.027L451.06 568.387L500.187 540.027V483.3L451.06 454.94L401.932 483.3V540.027V540.027Z" fill="#D9D9D9"/>
<path d="M401.686 597.481L401.562 597.412L352.064 568.833V511.537L352.188 511.468L401.686 482.889L401.809 482.957L451.307 511.537V568.833L451.184 568.901L401.686 597.481ZM352.558 568.545L401.686 596.912L450.813 568.545V511.818L401.686 483.451L352.558 511.818V568.545Z" fill="#D9D9D9"/>
<path d="M158.441 488.965C160.483 488.965 162.138 487.31 162.138 485.269C162.138 483.227 160.483 481.572 158.441 481.572C156.4 481.572 154.745 483.227 154.745 485.269C154.745 487.31 156.4 488.965 158.441 488.965Z" fill="#717070"/>
<path d="M784.411 351.733C786.453 351.733 788.108 350.078 788.108 348.037C788.108 345.995 786.453 344.34 784.411 344.34C782.37 344.34 780.715 345.995 780.715 348.037C780.715 350.078 782.37 351.733 784.411 351.733Z" fill="#717070"/>
<path d="M1142.29 401.958C1144.33 401.958 1145.99 400.303 1145.99 398.262C1145.99 396.22 1144.33 394.565 1142.29 394.565C1140.25 394.565 1138.59 396.22 1138.59 398.262C1138.59 400.303 1140.25 401.958 1142.29 401.958Z" fill="#717070"/>
<path d="M895.423 658.666C897.465 658.666 899.12 657.011 899.12 654.969C899.12 652.928 897.465 651.272 895.423 651.272C893.382 651.272 891.727 652.928 891.727 654.969C891.727 657.011 893.382 658.666 895.423 658.666Z" fill="#717070"/>
<path d="M599.115 629.112C601.156 629.112 602.811 627.457 602.811 625.416C602.811 623.374 601.156 621.719 599.115 621.719C597.073 621.719 595.418 623.374 595.418 625.416C595.418 627.457 597.073 629.112 599.115 629.112Z" fill="#717070"/>
<path d="M405.382 454.968C405.382 457.012 403.729 458.664 401.685 458.664C399.642 458.664 397.989 457.012 397.989 454.968C397.989 452.924 399.642 451.271 401.685 451.271C403.729 451.271 405.382 452.924 405.382 454.968Z" fill="#717070"/>
<path d="M10.3935 625.731C10.3935 627.775 8.74058 629.428 6.69674 629.428C4.6529 629.428 3 627.775 3 625.731C3 623.687 4.6529 622.034 6.69674 622.034C8.74058 622.034 10.3935 623.687 10.3935 625.731Z" fill="#717070"/>
<path d="M302.936 800.383C304.978 800.383 306.633 798.728 306.633 796.686C306.633 794.645 304.978 792.99 302.936 792.99C300.895 792.99 299.24 794.645 299.24 796.686C299.24 798.728 300.895 800.383 302.936 800.383Z" fill="#717070"/>
<path d="M154.82 714.926C156.862 714.926 158.517 713.271 158.517 711.229C158.517 709.188 156.862 707.533 154.82 707.533C152.778 707.533 151.123 709.188 151.123 711.229C151.123 713.271 152.778 714.926 154.82 714.926Z" fill="#717070"/>
<path d="M944.798 515.981C946.84 515.981 948.495 514.326 948.495 512.285C948.495 510.243 946.84 508.588 944.798 508.588C942.756 508.588 941.101 510.243 941.101 512.285C941.101 514.326 942.756 515.981 944.798 515.981Z" fill="#717070"/>
</g>
<defs>
<linearGradient id="paint0_linear_266_2921" x1="720" y1="950" x2="728" y2="7.50003" gradientUnits="userSpaceOnUse">
<stop stop-color="white"/>
<stop offset="0.427083" stop-color="white" stop-opacity="0.6125"/>
<stop offset="1" stop-color="white" stop-opacity="0"/>
</linearGradient>
</defs>
</svg>
