<svg width="122" height="28" viewBox="0 0 122 28" fill="none" xmlns="http://www.w3.org/2000/svg">
<g clip-path="url(#clip0_121_975)">
<path d="M99.9645 8.24382C98.4352 6.72793 96.5428 5.97365 94.2799 5.97365C91.4914 5.96754 88.9083 7.46143 87.5428 9.90152C86.8521 11.1179 86.4975 12.4908 86.5036 13.893C86.4975 16.0482 87.2653 17.8832 88.7873 19.3991C90.3166 20.9137 92.1882 21.6766 94.401 21.6766C96.6137 21.6766 98.4413 20.915 99.9645 19.393C101.487 17.8636 102.248 16.014 102.248 13.8233C102.255 11.6179 101.487 9.7536 99.9645 8.24627V8.24382ZM99.879 17.0653C99.3313 18.0262 98.5342 18.8294 97.566 19.3697C96.5843 19.9321 95.4743 20.223 94.3435 20.2157C92.6076 20.2157 91.121 19.6045 89.89 18.3807C88.6589 17.157 88.0477 15.6631 88.0477 13.8844C88.0477 12.6827 88.3252 11.5935 88.8802 10.6191C90.011 8.66192 92.0892 7.44553 94.3435 7.42475C95.4682 7.42475 96.5697 7.72304 97.5452 8.29272C98.5122 8.8404 99.3239 9.63624 99.879 10.5971C100.434 11.5507 100.711 12.6179 100.711 13.8123C100.711 15.0067 100.434 16.0886 99.879 17.0641V17.0653Z" fill="white"/>
<path d="M116.293 17.0645V17.1072C116.293 18.3725 115.773 19.5094 114.817 20.3249C113.861 21.161 112.537 21.5901 111.017 21.5901C109.888 21.5901 108.824 21.3762 107.847 20.9471C106.891 20.54 106.023 19.9178 105.22 19.1244L106.306 18.073C107.63 19.4031 109.215 20.0889 111.018 20.0889C113.254 20.0889 114.775 18.8872 114.775 17.1072V17.0645C114.775 16.2918 114.559 15.7552 114.037 15.3261C113.428 14.8322 112.364 14.4043 110.78 14.0608C109.021 13.6965 107.87 13.2454 107.11 12.6451C106.307 12.0021 105.916 11.1427 105.916 10.0278V9.985C105.916 9.44832 106.024 8.93365 106.263 8.46177C106.48 7.98989 106.806 7.56079 107.219 7.19649C108.088 6.46788 109.26 6.05957 110.542 6.05957C111.411 6.05957 112.279 6.23194 113.125 6.53145C113.885 6.83219 114.601 7.23928 115.297 7.79673L114.341 8.95444C113.169 8.03268 111.888 7.55957 110.54 7.55957C109.628 7.55957 108.803 7.8383 108.238 8.33219C107.718 8.78329 107.435 9.36153 107.435 9.98378V10.0266C107.435 10.6916 107.609 11.0999 108.065 11.4642C108.63 11.9141 109.608 12.2784 111.127 12.6011C112.973 13.0082 114.21 13.5009 115.035 14.1879C115.883 14.8958 116.295 15.8395 116.295 17.0632L116.293 17.0645Z" fill="white"/>
<path d="M81.9951 9.53127C81.176 8.27944 80.0452 7.3968 78.5941 6.89191C77.5844 6.52882 75.9621 6.35156 73.7274 6.35156H70.6259V21.299H75.3851C77.2494 21.299 78.7005 21.0288 79.7323 20.4873C80.7641 19.9469 81.6027 19.1083 82.2506 17.9689C82.8973 16.8308 83.2176 15.5068 83.2176 14.0129C83.2176 12.277 82.8117 10.7831 81.9939 9.53127H81.9951ZM80.7359 17.5203C80.088 18.4738 79.2066 19.1352 78.0819 19.4983C77.2848 19.7538 75.8484 19.8821 73.7861 19.8821H72.0575V7.81733H73.1174C75.2665 7.81733 76.8093 7.96036 77.7421 8.24398C78.9878 8.62051 79.9621 9.31733 80.6589 10.343C81.3557 11.3601 81.7042 12.5912 81.7042 14.0349C81.7042 15.4787 81.3765 16.5679 80.7372 17.5203H80.7359Z" fill="white"/>
<path d="M38.1271 10.6135C37.566 11.5817 37.2885 12.6624 37.2885 13.8714C37.2885 15.693 37.9144 17.2162 39.1662 18.4313C40.4181 19.6489 41.9902 20.2602 43.8961 20.2602C45.9878 20.2602 47.7384 19.4423 49.1467 17.7981L50.3276 18.6942C49.588 19.6404 48.6271 20.3947 47.5391 20.8922C46.4217 21.4118 45.1772 21.6673 43.8044 21.6673C41.1944 21.6673 39.1308 20.7993 37.6149 19.056C36.3484 17.5829 35.7164 15.8115 35.7164 13.7345C35.7164 11.5426 36.4841 9.70762 38.022 8.21373C39.5574 6.71985 41.4792 5.97168 43.7836 5.97168C45.1785 5.97168 46.4376 6.24919 47.5611 6.79686C48.6565 7.33109 49.61 8.12694 50.3288 9.12327L49.1479 10.0267C48.5293 9.20884 47.7323 8.54747 46.8068 8.0976C45.868 7.6575 44.8435 7.42889 43.8044 7.44356C42.6455 7.43623 41.5 7.7284 40.4902 8.3042C39.5085 8.84576 38.6907 9.64283 38.1284 10.6098L38.1271 10.6135Z" fill="white"/>
<path d="M65.3264 6.35156H66.7775V15.3442C66.7775 18.8234 63.9535 21.6401 60.4743 21.6474C56.9963 21.6388 54.1785 18.8234 54.1711 15.3442V6.35156H55.6149V15.3442C55.6149 18.0264 57.7909 20.1963 60.4731 20.1963C63.1553 20.1963 65.3252 18.0264 65.3252 15.3442V6.35156H65.3264Z" fill="white"/>
<path d="M14 0C6.26773 0 0 6.26773 0 14C0 21.7323 6.26773 28 14 28C21.7323 28 28 21.7323 28 14C28 6.26773 21.7323 0 14 0ZM14 20.3178C10.5171 20.3178 7.68215 17.4841 7.68215 14C7.68215 10.5159 10.5159 7.68215 14 7.68215C17.4841 7.68215 20.3178 10.5159 20.3178 14C20.3178 17.4841 17.4841 20.3178 14 20.3178ZM1.5489 14C1.5489 7.39487 6.72005 1.97677 13.2262 1.57579V6.17237C9.2445 6.56113 6.13325 9.91687 6.13325 14.0012C6.13325 18.0856 9.2445 21.4401 13.2262 21.8301V26.4267C6.72005 26.0257 1.5489 20.6076 1.5489 14.0024V14ZM14.7738 26.4242V21.8276C18.7555 21.4389 21.8667 18.0831 21.8667 13.9988C21.8667 9.91443 18.7555 6.5599 14.7738 6.16993V1.57579C21.28 1.97677 26.4511 7.39487 26.4511 14C26.4511 20.6051 21.28 26.0232 14.7738 26.4242Z" fill="url(#paint0_linear_121_975)"/>
<path d="M121.99 5.9634C121.99 7.01108 121.169 7.83259 120.098 7.83259C119.027 7.83259 118.194 7.01108 118.194 5.9634C118.194 4.91572 119.039 4.11621 120.098 4.11621C121.156 4.11621 121.99 4.93773 121.99 5.9634ZM118.667 5.9634C118.667 6.78492 119.276 7.43895 120.109 7.43895C120.941 7.43895 121.516 6.78492 121.516 5.9744C121.516 5.16389 120.919 4.48785 120.098 4.48785C119.276 4.48785 118.667 5.15166 118.667 5.9634ZM119.806 6.93161H119.378V5.08443C119.546 5.0502 119.784 5.02697 120.088 5.02697C120.438 5.02697 120.594 5.08443 120.73 5.16267C120.831 5.24213 120.91 5.3876 120.91 5.56853C120.91 5.77147 120.752 5.92917 120.527 5.99641V6.01841C120.707 6.08687 120.808 6.22135 120.864 6.46829C120.922 6.74946 120.955 6.86315 121 6.93039H120.538C120.482 6.86193 120.447 6.69323 120.391 6.48051C120.358 6.27758 120.246 6.18712 120.009 6.18712H119.806V6.93039V6.93161ZM119.817 5.88394H120.02C120.257 5.88394 120.447 5.80447 120.447 5.61377C120.447 5.44506 120.324 5.33259 120.053 5.33259C119.94 5.33259 119.861 5.3436 119.815 5.35582V5.88516L119.817 5.88394Z" fill="white"/>
</g>
<defs>
<linearGradient id="paint0_linear_121_975" x1="4.10024" y1="23.8998" x2="23.8998" y2="4.10024" gradientUnits="userSpaceOnUse">
<stop stop-color="#4C80E9"/>
<stop offset="1" stop-color="#91D2F5"/>
</linearGradient>
<clipPath id="clip0_121_975">
<rect width="121.99" height="28" fill="white"/>
</clipPath>
</defs>
</svg>
