<svg width="18" height="21" viewBox="0 0 18 21" xmlns="http://www.w3.org/2000/svg">
    <path d="M7.13832 8.62976H7.13818C6.85895 8.62978 6.59116 8.74072 6.39372 8.93818C6.19628 9.13564 6.08536 9.40344 6.08537 9.68267C6.08538 9.96191 6.19631 10.2297 6.39376 10.4272C6.59122 10.6246 6.85901 10.7355 7.13825 10.7355C7.41748 10.7355 7.68528 10.6246 7.88274 10.4272C8.08019 10.2297 8.19112 9.96191 8.19113 9.68267C8.19114 9.40344 8.08022 9.13564 7.88278 8.93818C7.68534 8.74072 7.41755 8.62978 7.13832 8.62976ZM10.8926 8.62976C10.6627 8.61028 10.4322 8.66067 10.2314 8.77434C10.0306 8.88801 9.86877 9.05966 9.76714 9.26682C9.6655 9.47399 9.62879 9.70701 9.6618 9.93539C9.6948 10.1638 9.796 10.3769 9.95213 10.5468C10.1083 10.7167 10.312 10.8355 10.5368 10.8877C10.7616 10.9398 10.9969 10.9229 11.2119 10.8391C11.4269 10.7553 11.6116 10.6086 11.7418 10.4181C11.872 10.2276 11.9417 10.0022 11.9417 9.77142C11.9478 9.62756 11.9255 9.4839 11.8761 9.34865C11.8267 9.2134 11.7511 9.08921 11.6537 8.98319C11.5563 8.87716 11.4389 8.79137 11.3083 8.73073C11.1777 8.67009 11.0364 8.63578 10.8926 8.62976ZM15.8914 6.10352e-05H2.10865C1.83106 0.00071684 1.55632 0.0560454 1.30012 0.162887C1.04391 0.269729 0.811263 0.425991 0.615455 0.622751C0.419646 0.81951 0.264513 1.05291 0.158914 1.30963C0.0533144 1.56635 -0.000682443 1.84135 6.51056e-06 2.11894V16.0252C-0.000670609 16.3028 0.0533348 16.5778 0.158939 16.8345C0.264543 17.0912 0.419677 17.3246 0.615484 17.5214C0.811291 17.7181 1.04394 17.8744 1.30013 17.9812C1.55633 18.088 1.83106 18.1434 2.10865 18.144H13.7726L13.2274 16.2412L14.544 17.4652L15.7886 18.6172L18 20.5715V2.11894C18.0007 1.84135 17.9467 1.56635 17.8411 1.30963C17.7355 1.05291 17.5804 0.81951 17.3846 0.622751C17.1887 0.425991 16.9561 0.269729 16.6999 0.162887C16.4437 0.0560454 16.1689 0.00071684 15.8914 6.10352e-05ZM11.9211 13.4332V13.4332C11.9211 13.4332 11.5508 12.9909 11.2422 12.6C11.9878 12.4245 12.6473 11.9909 13.104 11.376C12.7339 11.6224 12.3371 11.826 11.9211 11.9829C11.4426 12.1871 10.9422 12.3355 10.4297 12.4252C9.54879 12.5873 8.64538 12.5839 7.76575 12.4149C7.24931 12.3138 6.74318 12.1658 6.25366 11.9727C5.99567 11.8734 5.7448 11.7566 5.50281 11.6229C5.47192 11.6023 5.44117 11.592 5.41029 11.5715C5.39481 11.5638 5.38086 11.5533 5.36914 11.5407C5.18408 11.4378 5.08106 11.3658 5.08106 11.3658C5.5213 11.9678 6.15798 12.397 6.8811 12.5795C6.57263 12.9704 6.19203 13.4332 6.19203 13.4332C5.58104 13.4496 4.97537 13.3157 4.42834 13.043C3.8813 12.7704 3.40966 12.3675 3.05494 11.8698C3.08833 9.78455 3.59475 7.73415 4.53601 5.87317C5.36436 5.2226 6.37426 4.84523 7.42626 4.79317L7.52904 4.91665C6.53931 5.16155 5.61572 5.62159 4.82401 6.26404C4.82401 6.26404 5.05033 6.14063 5.43083 5.96576C6.17021 5.62824 6.95824 5.40956 7.76582 5.31781C7.82341 5.30583 7.88195 5.29892 7.94074 5.29718C8.62999 5.20739 9.3275 5.20051 10.0184 5.27667C11.1049 5.40073 12.1567 5.73615 13.1144 6.26404C12.3628 5.65225 11.4899 5.20701 10.5534 4.95776L10.6973 4.79327C11.7493 4.84529 12.7592 5.22266 13.5876 5.87327C14.5289 7.7342 15.0354 9.78459 15.0688 11.8698C14.7111 12.3671 14.2374 12.7694 13.6889 13.0419C13.1403 13.3144 12.5335 13.4487 11.9211 13.4332Z" />
</svg>
