<svg width="11" height="17" viewBox="0 0 11 17" fill="none" xmlns="http://www.w3.org/2000/svg">
    <g clip-path="url(#clip0_670_25)">
    <path d="M5.26556 11.7359C5.21691 11.7532 5.18918 11.709 5.1561 11.6887C3.53452 10.6891 1.91471 9.68896 0.296694 8.68809C0.281027 8.67983 0.264761 8.67286 0.248047 8.66726V8.64491L0.27675 8.62763C0.317504 8.61646 0.357623 8.60289 0.396911 8.58699L4.21818 6.77121C4.55871 6.60914 4.89925 6.44961 5.23978 6.28906H5.2641C5.2641 6.33987 5.2641 6.38508 5.2641 6.43335C5.2654 8.20104 5.26589 9.96856 5.26556 11.7359Z" fill="#393939"/>
    <path d="M5.26846 6.29043H5.24414C5.24414 6.23963 5.24901 6.18882 5.24901 6.13548C5.24901 4.15 5.24901 2.16435 5.24901 0.178539C5.24341 0.127537 5.24671 0.0758987 5.25874 0.026123H5.26895C5.46889 0.334512 5.64305 0.659666 5.82694 0.978216C7.28377 3.50189 8.7398 6.02523 10.195 8.54823C10.2091 8.57312 10.2203 8.59903 10.233 8.62646C10.1917 8.61727 10.1513 8.60487 10.1118 8.58938C9.84474 8.46338 9.5767 8.33535 9.31206 8.20681C8.89758 8.00867 8.48293 7.81087 8.06813 7.6134L6.06969 6.66792C5.80359 6.53989 5.53603 6.41541 5.26846 6.29043Z" fill="#343434"/>
    <path d="M5.26083 0.0234957C5.2488 0.0732713 5.2455 0.12491 5.2511 0.175912C5.2511 2.16139 5.2511 4.14703 5.2511 6.13285C5.2511 6.18365 5.24818 6.23446 5.24623 6.2878C4.9057 6.44835 4.56517 6.60788 4.22463 6.76995L0.403364 8.58573C0.364076 8.60163 0.323957 8.6152 0.283203 8.62638C0.393633 8.38658 0.537145 8.16913 0.668007 7.93949C2.18419 5.30743 3.70151 2.67588 5.21996 0.0448346C5.22999 0.0302594 5.24088 0.0163457 5.25256 0.00317383L5.26083 0.0234957Z" fill="#8C8C8C"/>
    <path d="M5.26806 6.29028C5.53562 6.41526 5.80318 6.53974 6.07026 6.66574L8.0687 7.61122C8.48383 7.80835 8.89847 8.00615 9.31262 8.20463C9.57921 8.33215 9.84774 8.4612 10.1124 8.5872C10.1518 8.60269 10.1923 8.61509 10.2335 8.62429C10.2822 8.68779 10.2102 8.69033 10.1883 8.70405C9.77331 8.96316 9.3564 9.21871 8.94047 9.47578C7.74665 10.2135 6.55316 10.951 5.36 11.6884C5.32984 11.7067 5.29725 11.7204 5.26562 11.7361C5.26562 9.96911 5.26562 8.20192 5.26562 6.43457C5.26611 6.38631 5.26757 6.33855 5.26806 6.29028Z" fill="#141414"/>
    <path d="M5.24847 12.7397L8.37408 10.8157C8.97082 10.4478 9.56724 10.0797 10.1633 9.71117L10.2173 9.68018C10.2227 9.73098 10.1891 9.75791 10.1687 9.78737C8.80655 11.7928 7.44442 13.7976 6.08229 15.8017C5.82446 16.1817 5.56711 16.5638 5.30685 16.9408C5.29322 16.9606 5.27231 17.0536 5.23047 16.955C5.26355 16.9255 5.24896 16.8859 5.24896 16.8534C5.24928 15.4816 5.24912 14.1104 5.24847 12.7397Z" fill="#3D3D3C"/>
    <path d="M5.2482 12.7399C5.2482 14.1106 5.2482 15.481 5.2482 16.8511C5.2482 16.8861 5.26279 16.9258 5.22971 16.9527C5.16015 16.909 5.12999 16.8308 5.08377 16.7662C3.50434 14.4427 1.92573 12.1189 0.347927 9.79471C0.327982 9.76524 0.309494 9.73374 0.289062 9.70123C0.329926 9.67633 0.351819 9.71037 0.375657 9.72511C1.97292 10.7101 3.56986 11.6959 5.16647 12.6825C5.19615 12.7018 5.22144 12.7216 5.2482 12.7399Z" fill="#8C8C8C"/>
    <path d="M5.2607 0.0233635L5.24902 0.0045657C5.27043 -0.00965981 5.26751 0.0111702 5.27092 0.0218394L5.2607 0.0233635Z" fill="#393939"/>
    </g>
    <defs>
    <clipPath id="clip0_670_25">
    <rect width="10" height="17" fill="white" transform="translate(0.25)"/>
    </clipPath>
    </defs>
</svg>
    