<svg width="21" height="20" viewBox="0 0 21 20" xmlns="http://www.w3.org/2000/svg">
    <path d="M3.004 4.99983H2.975C2.66795 5.01902 2.36024 4.97461 2.07114 4.86938C1.78204 4.76415 1.51778 4.60037 1.2949 4.38829C1.07203 4.17621 0.895337 3.9204 0.775896 3.63688C0.656455 3.35336 0.596834 3.04823 0.600769 2.7406C0.604703 2.43297 0.672107 2.12947 0.79876 1.84909C0.925413 1.56872 1.10859 1.31751 1.33681 1.1112C1.56504 0.904887 1.8334 0.747917 2.1251 0.650116C2.41679 0.552315 2.72554 0.51579 3.032 0.542827C3.33906 0.521377 3.64724 0.563584 3.93723 0.666803C4.22722 0.770022 4.49275 0.932028 4.7172 1.14267C4.94165 1.35331 5.12017 1.60804 5.24157 1.89089C5.36298 2.17375 5.42464 2.47863 5.42271 2.78643C5.42078 3.09424 5.35528 3.39832 5.23034 3.67963C5.10539 3.96094 4.92368 4.21341 4.69661 4.42121C4.46953 4.62901 4.20198 4.78767 3.91072 4.88723C3.61946 4.9868 3.31077 5.02513 3.004 4.99983ZM1.018 7.99983H5.018V19.9998H1.018V7.99983ZM15.518 7.99983C14.844 8.00165 14.1791 8.15577 13.5731 8.45067C12.967 8.74556 12.4354 9.17361 12.018 9.70283V7.99983H8.018V19.9998H12.018V14.4998C12.018 13.9694 12.2287 13.4607 12.6038 13.0856C12.9789 12.7105 13.4876 12.4998 14.018 12.4998C14.5484 12.4998 15.0571 12.7105 15.4322 13.0856C15.8073 13.4607 16.018 13.9694 16.018 14.4998V19.9998H20.018V12.4998C20.018 11.3064 19.5439 10.1618 18.7 9.31785C17.8561 8.47393 16.7115 7.99983 15.518 7.99983Z"/>
</svg>
