<svg width="28" height="28" viewBox="0 0 28 28" fill="none" xmlns="http://www.w3.org/2000/svg">
    <path d="M23.8968 4.10575C21.6068 1.81989 18.5951 0.398672 15.3748 0.0842099C12.1545 -0.230252 8.92475 0.581487 6.23578 2.38115C3.54682 4.18082 1.56496 6.8571 0.627824 9.95405C-0.309309 13.051 -0.143748 16.3771 1.0963 19.3656C2.33636 22.3542 4.57418 24.8205 7.42858 26.3442C10.283 27.8679 13.5774 28.3549 16.7505 27.7222C19.9237 27.0895 22.7794 25.3762 24.8311 22.8742C26.8828 20.3722 28.0036 17.2363 28.0026 14.0007C27.9983 10.2888 26.5218 6.73022 23.8968 4.10575ZM13.2768 26.5247C10.0873 26.3297 7.09233 24.9252 4.90285 22.5977C2.71338 20.2702 1.49432 17.1951 1.49432 13.9997C1.49432 10.8042 2.71338 7.72915 4.90285 5.40168C7.09233 3.07421 10.0873 1.66968 13.2768 1.47462V6.22268C11.3382 6.4021 9.53647 7.29907 8.22478 8.73776C6.91309 10.1765 6.186 12.0531 6.186 14C6.186 15.9469 6.91309 17.8236 8.22478 19.2623C9.53647 20.701 11.3382 21.5979 13.2768 21.7773V26.5247ZM14.0012 20.3638C12.5271 20.3651 11.0981 19.8551 9.95786 18.9208C8.81763 17.9865 8.0367 16.6856 7.7482 15.24C7.4597 13.7944 7.68149 12.2934 8.37574 10.993C9.06999 9.6926 10.1937 8.67321 11.5554 8.10857C12.9171 7.54393 14.4325 7.469 15.8433 7.89656C17.2541 8.32412 18.4729 9.22769 19.292 10.4533C20.1112 11.6789 20.4799 13.1507 20.3354 14.6177C20.1909 16.0847 19.5421 17.4562 18.4996 18.4985C17.307 19.692 15.6891 20.3629 14.0019 20.3638H14.0012ZM23.1202 22.6076C20.9246 24.9359 17.9224 26.3374 14.7277 26.5254V21.7773C16.6663 21.5979 18.4679 20.701 19.7796 19.2623C21.0913 17.8236 21.8184 15.9469 21.8184 14C21.8184 12.0531 21.0913 10.1765 19.7796 8.73776C18.4679 7.29907 16.6663 6.4021 14.7277 6.22268V1.47462C17.1106 1.61542 19.4039 2.43302 21.3386 3.83143C23.2732 5.22984 24.7688 7.15105 25.6499 9.36961C26.531 11.5882 26.761 14.012 26.3129 16.3567C25.8648 18.7014 24.7573 20.8696 23.1202 22.6069V22.6076Z" fill="url(#paint0_linear_55_484)"/>
    <defs>
        <linearGradient id="paint0_linear_55_484" x1="4.11256" y1="23.908" x2="23.8904" y2="4.13021" gradientUnits="userSpaceOnUse">
            <stop offset="0.005" stop-color="#4E9DF7"/>
            <stop offset="0.996" stop-color="#6CD8F9"/>
            <stop offset="1" stop-color="#6DD9FA"/>
        </linearGradient>
    </defs>
</svg>
