<svg width="24" height="24" viewBox="0 0 24 24" xmlns="http://www.w3.org/2000/svg">
    <path d="M21.325 9.30794C20.567 9.30794 19.9 9.62694 19.409 10.1239C17.604 8.85594 15.17 8.03994 12.473 7.95294L13.874 1.54694L18.335 2.56294C18.335 3.67094 19.225 4.57594 20.317 4.57594C21.43 4.57594 22.325 3.64694 22.325 2.53794C22.325 1.42894 21.436 0.499939 20.318 0.499939C19.539 0.499939 18.867 0.976939 18.532 1.62894L13.605 0.520939C13.357 0.453939 13.114 0.633939 13.048 0.885939L11.51 7.94794C8.83396 8.06094 6.42596 8.87594 4.61496 10.1449C4.12396 9.62694 3.43096 9.30794 2.67296 9.30794C-0.139038 9.30794 -1.06004 13.1369 1.51496 14.4459C1.42396 14.8509 1.38296 15.2829 1.38296 15.7139C1.38296 20.0149 6.15796 23.4999 12.021 23.4999C17.909 23.4999 22.684 20.0149 22.684 15.7139C22.684 15.2829 22.639 14.8309 22.528 14.4249C25.051 13.1109 24.122 9.30994 21.325 9.30794ZM5.60096 14.7179C5.60096 13.5889 6.49096 12.6799 7.60896 12.6799C8.70096 12.6799 9.59196 13.5829 9.59196 14.7179C9.59196 15.8269 8.70196 16.7309 7.60896 16.7309C6.49596 16.7359 5.60096 15.8269 5.60096 14.7179ZM16.44 19.5159C14.599 21.3839 9.40396 21.3839 7.56196 19.5159C7.35896 19.3359 7.35896 19.0179 7.56196 18.8129C7.73896 18.6329 8.05296 18.6329 8.22996 18.8129C9.63596 20.2759 14.3 20.3009 15.767 18.8129C15.944 18.6329 16.258 18.6329 16.435 18.8129C16.642 19.0189 16.642 19.3369 16.44 19.5159ZM16.399 16.7349C15.307 16.7349 14.417 15.8319 14.417 14.7239C14.417 13.5949 15.307 12.6859 16.399 12.6859C17.512 12.6859 18.407 13.5889 18.407 14.7239C18.402 15.8269 17.512 16.7349 16.399 16.7349Z" />
</svg>
