<svg width="21" height="21" viewBox="0 0 21 21" xmlns="http://www.w3.org/2000/svg">
    <path d="M10.4999 0C4.70111 0 0 4.70109 0 10.5001C0 16.2993 4.70111 21 10.4999 21C16.2994 21 21 16.2993 21 10.5001C21 4.70147 16.2994 0.000501541 10.4998 0.000501541L10.4999 0V0ZM15.3151 15.1441C15.1271 15.4526 14.7233 15.5504 14.4149 15.361C11.9496 13.8551 8.84614 13.5141 5.19123 14.3492C4.83903 14.4294 4.48795 14.2087 4.40771 13.8564C4.32709 13.5041 4.54688 13.153 4.89996 13.0727C8.89968 12.1585 12.3305 12.5524 15.0982 14.2438C15.4067 14.4332 15.5045 14.8357 15.3151 15.1441V15.1441ZM16.6003 12.2847C16.3633 12.6702 15.8593 12.7919 15.4744 12.5549C12.652 10.8197 8.34975 10.3173 5.01143 11.3306C4.57848 11.4614 4.12121 11.2174 3.98981 10.7852C3.85941 10.3522 4.10353 9.89583 4.53573 9.76417C8.34899 8.60711 13.0896 9.16759 16.3307 11.1593C16.7157 11.3963 16.8373 11.9004 16.6003 12.2848V12.2847ZM16.7107 9.30752C13.3266 7.29746 7.74327 7.11264 4.51228 8.09328C3.99344 8.25064 3.44477 7.95774 3.28754 7.43889C3.13031 6.9198 3.42295 6.37148 3.94216 6.21375C7.65111 5.08778 13.8168 5.30533 17.713 7.61832C18.1806 7.8953 18.3336 8.49803 18.0565 8.96409C17.7807 9.43077 17.1763 9.58462 16.7112 9.30752H16.7107Z"/>
</svg>
