<svg width="24" height="20" viewBox="0 0 24 20" xmlns="http://www.w3.org/2000/svg">
    <path d="M21.2935 0.914093C18.3405 2.13713 5.67861 7.38185 2.18013 8.81129C-0.16611 9.72689 1.20741 10.5854 1.20741 10.5854C1.20741 10.5854 3.21021 11.272 4.92717 11.7871C6.64389 12.3021 7.55949 11.7299 7.55949 11.7299L15.6283 6.29345C18.4896 4.34777 17.8029 5.95001 17.116 6.63689C15.6283 8.12489 13.1676 10.4709 11.1074 12.3595C10.1918 13.1606 10.6495 13.8472 11.0503 14.1907C12.538 15.4497 16.6012 18.0249 16.83 18.1965C18.0388 19.0523 20.4168 20.2843 20.7785 17.6815L22.2091 8.69705C22.667 5.66417 23.1247 2.86001 23.1818 2.05889C23.3536 0.112973 21.2935 0.914093 21.2935 0.914093Z"/>
</svg>
