<svg width="21" height="18" viewBox="0 0 21 18" xmlns="http://www.w3.org/2000/svg">
    <path d="M18.4752 4.80461C18.4855 4.98969 18.4855 5.17478 18.4855 5.34961C18.4828 6.48827 18.3166 7.62065 17.9918 8.71203C17.3075 11.2271 15.8049 13.4426 13.7212 15.0086C11.6375 16.5746 9.09161 17.4019 6.48542 17.3599C4.19117 17.3625 1.94509 16.7018 0.0175781 15.4575C0.351881 15.4989 0.688426 15.5195 1.02528 15.5192C2.92371 15.5211 4.76744 14.8835 6.25928 13.7095C5.38059 13.693 4.52893 13.4028 3.82299 12.8793C3.11705 12.3558 2.59198 11.6252 2.32096 10.7892C2.58258 10.834 2.84734 10.8581 3.11276 10.8612C3.49174 10.8626 3.86903 10.8107 4.23354 10.7069C3.33111 10.5282 2.51233 10.0582 1.90299 9.36896C1.29366 8.67975 0.927503 7.80952 0.860778 6.892C0.84368 6.78665 0.836785 6.6799 0.840188 6.57324V6.52182C1.42622 6.84801 2.08233 7.02791 2.75277 7.04625C2.17571 6.6616 1.70283 6.14011 1.37629 5.52829C1.04976 4.91647 0.879723 4.23335 0.881358 3.53985C0.880621 2.7931 1.07561 2.05921 1.4469 1.41131C2.50591 2.71616 3.82787 3.78335 5.3267 4.5434C6.82553 5.30344 8.46763 5.7393 10.1461 5.8226C9.93371 4.91778 10.0261 3.96815 10.4088 3.12123C10.7916 2.2743 11.4434 1.57749 12.2628 1.13903C13.0823 0.700565 14.0237 0.545004 14.9406 0.696506C15.8576 0.848009 16.6989 1.29809 17.3338 1.97685C18.2806 1.78999 19.1883 1.44219 20.0176 0.948565C20.0533 1.66445 19.9339 2.37961 19.6677 3.04512C19.4015 3.71063 18.9947 4.31081 18.4752 4.80461Z"/>
</svg>
