<svg width="475" height="259" viewBox="0 0 475 259" fill="none" xmlns="http://www.w3.org/2000/svg">
<g clip-path="url(#clip0_918_13105)">
<path d="M390.942 52.8682C390.662 51.0645 388.976 49.8328 387.169 50.1132C385.368 50.3937 384.138 52.0874 384.418 53.8911C384.89 56.9705 385.494 66.6159 382.172 70.4927C381.453 71.3341 380.585 71.8345 379.493 72.0379L379.795 53.6711C379.839 51.0041 377.692 48.8154 375.023 48.8154C372.354 48.8154 370.185 51.0261 370.251 53.7096L371.113 88.5681C369.971 88.3811 369.065 87.8807 368.324 87.0119C365.001 83.1295 365.606 73.4897 366.078 70.4102C366.358 68.6065 365.128 66.9183 363.327 66.6324C361.526 66.3519 359.84 67.5837 359.554 69.3874C359.318 70.9051 357.407 84.4053 363.305 91.3066C365.331 93.6767 368.077 95.024 371.278 95.233L371.651 110.405H378.856L379.377 78.7083C382.507 78.4663 385.192 77.1246 387.186 74.793C393.078 67.8972 391.172 54.3915 390.936 52.8737L390.942 52.8682Z" fill="#BDBDBD"/>
<path d="M83.4379 82.4199C83.2567 81.2706 82.1859 80.4842 81.0328 80.6657C79.8851 80.8471 79.0999 81.925 79.2811 83.0743C79.5831 85.0374 79.9675 91.1854 77.8479 93.6599C77.3867 94.1934 76.8375 94.5178 76.1402 94.6443L76.3324 82.9368C76.3598 81.2376 74.9925 79.8408 73.2903 79.8408C71.588 79.8408 70.2097 81.2486 70.2482 82.9643L70.7973 105.186C70.067 105.07 69.4904 104.746 69.0182 104.191C66.8986 101.716 67.283 95.5681 67.585 93.605C67.7662 92.4557 66.981 91.3778 65.8333 91.1964C64.6857 91.0149 63.6094 91.8013 63.4282 92.9506C63.2744 93.9184 62.0609 102.524 65.8168 106.924C67.1072 108.436 68.8589 109.294 70.9016 109.426L71.1432 119.099H75.7338L76.0688 98.8895C78.0676 98.7356 79.7753 97.8832 81.0438 96.393C84.7997 91.9937 83.5862 83.3877 83.4324 82.4199H83.4379Z" fill="#BDBDBD"/>
<path d="M237.497 259.001C368.663 259.001 474.994 221.302 474.994 174.799C474.994 128.296 368.663 90.5977 237.497 90.5977C106.331 90.5977 0 128.296 0 174.799C0 221.302 106.331 259.001 237.497 259.001Z" fill="url(#paint0_linear_918_13105)"/>
<path d="M197.192 86.583H190.691C185.277 86.583 180.873 82.1727 180.873 76.7506C180.873 75.3594 179.741 74.2266 178.347 74.2266H170.813C168.798 74.2266 167.167 72.5934 167.167 70.5752C167.167 68.557 168.798 66.9238 170.813 66.9238H178.347C183.761 66.9238 188.165 71.3341 188.165 76.7561C188.165 78.1474 189.296 79.2857 190.691 79.2857H197.192C199.208 79.2857 200.838 80.9189 200.838 82.9371C200.838 84.9552 199.208 86.5885 197.192 86.5885V86.583Z" fill="url(#paint1_linear_918_13105)"/>
<path d="M218.63 1.36211e-06C199.246 1.36211e-06 182.844 16.2992 182.372 35.6394C181.921 56.3543 182.223 76.8108 185.644 97.2893C187.281 105.433 189.351 113.292 191.987 121.177C193.09 124.29 196.665 126.808 199.806 126.808H200.377C203.518 126.808 204.907 124.339 203.672 121.276C202.832 119.187 203.897 117.509 205.967 117.537C208.037 117.564 210.366 119.275 211.261 121.342C212.573 124.372 216.356 126.803 219.492 126.803H220.063C223.204 126.803 224.384 124.422 222.94 121.441C221.957 119.406 222.929 117.773 224.999 117.801C227.07 117.828 229.497 119.5 230.535 121.507C232.056 124.449 236.048 126.803 239.183 126.803H239.754C242.895 126.803 243.867 124.504 242.22 121.612C241.094 119.637 241.967 118.037 244.037 118.07C246.107 118.098 248.633 119.731 249.814 121.678C251.544 124.537 255.739 126.803 258.88 126.803H259.165C262.46 126.803 263.267 124.477 261.329 121.524C257.024 114.364 253.96 107.331 251.621 99.3294C246.997 78.356 248.93 57.6191 251.308 36.4752C253.647 16.6401 238.546 -0.00549769 218.63 1.36211e-06Z" fill="url(#paint2_linear_918_13105)"/>
<path d="M189.219 42.8597C192.635 45.2738 198.208 40.99 195.501 31.4547C195.364 30.9817 194.677 30.8553 194.463 31.3777C191.987 37.3167 185.15 39.9837 189.219 42.8652V42.8597Z" fill="#3C3C3C"/>
<path d="M204.66 29.3324C200.575 31.0591 207.9 53.9682 219.278 46.7424C226.213 42.3377 219.959 38.0209 212.919 35.4034C208.652 33.8141 207.12 28.2931 204.66 29.3324Z" fill="#3C3C3C"/>
<path d="M202.711 62.1892C205.689 62.1892 208.103 58.6685 208.103 54.3256C208.103 49.9826 205.689 46.4619 202.711 46.4619C199.733 46.4619 197.319 49.9826 197.319 54.3256C197.319 58.6685 199.733 62.1892 202.711 62.1892Z" fill="#3C3C3C"/>
<path d="M223.572 86.583H217.07C211.656 86.583 207.252 82.1727 207.252 76.7506C207.252 75.3594 206.121 74.2266 204.726 74.2266H197.192C195.177 74.2266 193.546 72.5934 193.546 70.5752C193.546 68.557 195.177 66.9238 197.192 66.9238H204.726C210.14 66.9238 214.544 71.3341 214.544 76.7561C214.544 78.1474 215.675 79.2857 217.07 79.2857H223.572C225.587 79.2857 227.218 80.9189 227.218 82.9371C227.218 84.9552 225.587 86.5885 223.572 86.5885V86.583Z" fill="#565656"/>
</g>
<defs>
<linearGradient id="paint0_linear_918_13105" x1="237.497" y1="52.4397" x2="237.497" y2="184.659" gradientUnits="userSpaceOnUse">
<stop stop-color="#E5E5E5"/>
<stop offset="0.48" stop-color="#F3F3F3"/>
<stop offset="1" stop-color="white"/>
</linearGradient>
<linearGradient id="paint1_linear_918_13105" x1="170.461" y1="66.0605" x2="184.138" y2="76.8305" gradientUnits="userSpaceOnUse">
<stop stop-color="#E1E1E1"/>
<stop offset="0.19" stop-color="#C3C3C3"/>
<stop offset="0.71" stop-color="#949494"/>
<stop offset="1" stop-color="#565656"/>
</linearGradient>
<linearGradient id="paint2_linear_918_13105" x1="181.532" y1="16.2442" x2="256.803" y2="119.798" gradientUnits="userSpaceOnUse">
<stop stop-color="#E1E1E1"/>
<stop offset="0.19" stop-color="#C3C3C3"/>
<stop offset="0.71" stop-color="#949494"/>
<stop offset="1" stop-color="#717070"/>
</linearGradient>
<clipPath id="clip0_918_13105">
<rect width="475" height="259" fill="white"/>
</clipPath>
</defs>
</svg>
